<svg width="25" height="25" viewBox="0 0 25 25" fill="none" xmlns="http://www.w3.org/2000/svg">
<path d="M4.41683 12.7605C4.00496 12.3514 3.67864 11.8644 3.45688 11.3279C3.23512 10.7913 3.12236 10.216 3.12516 9.63552C3.12516 8.46138 3.59159 7.33534 4.42183 6.5051C5.25206 5.67486 6.37811 5.20843 7.55225 5.20843C9.19808 5.20843 10.6356 6.10427 11.396 7.4376H12.5627C12.9492 6.75954 13.5086 6.19603 14.1838 5.80445C14.859 5.41288 15.6259 5.20722 16.4064 5.20843C17.5805 5.20843 18.7066 5.67486 19.5368 6.5051C20.3671 7.33534 20.8335 8.46138 20.8335 9.63552C20.8335 10.8543 20.3127 11.9793 19.5418 12.7605L11.9793 20.3126L4.41683 12.7605ZM20.271 13.5001C21.2606 12.5001 21.8752 11.1459 21.8752 9.63552C21.8752 8.18511 21.299 6.79412 20.2734 5.76853C19.2478 4.74294 17.8568 4.16677 16.4064 4.16677C14.5835 4.16677 12.9689 5.05218 11.9793 6.42718C11.4742 5.72562 10.8091 5.1546 10.0392 4.76148C9.26928 4.36837 8.41672 4.16449 7.55225 4.16677C6.10184 4.16677 4.71085 4.74294 3.68526 5.76853C2.65967 6.79412 2.0835 8.18511 2.0835 9.63552C2.0835 11.1459 2.69808 12.5001 3.68766 13.5001L11.9793 21.7918L20.271 13.5001Z" fill="#F96557"/>
<path d="M12 21L3.5 12.5L3 11L2.5 9.5L3 8L4 6.5L5 5L6.5 4.5H9L10 5.5L11.5 6.5L12 7L12.5 6.5L13.5 6L15 5H16H17.5L19 5.5L20 6.5L21 8L21.5 9.5L21 12L12 21Z" fill="#F96557"/>
</svg>
